HIERARCHY
ROOT joint_Root
{
	OFFSET 0.0 0.0 0.0
	CHANNELS 6 Xposition Yposition Zposition Zrotation Xrotation Yrotation 
	JOINT Hips
	{
		OFFSET -0.726466 93.3139 -2.00062
		CHANNELS 6 Xposition Yposition Zposition Zrotation Xrotation Yrotation 
		JOINT Spine
		{
			OFFSET 15.7357 0.0 0.0
			CHANNELS 6 Xposition Yposition Zposition Zrotation Xrotation Yrotation 
			JOINT Chest
			{
				OFFSET 8.98455 -0.406207 0.0
				CHANNELS 6 Xposition Yposition Zposition Zrotation Xrotation Yrotation 
				JOINT Neck
				{
					OFFSET 16.3773 0.0 0.0
					CHANNELS 6 Xposition Yposition Zposition Zrotation Xrotation Yrotation 
					JOINT Head
					{
						OFFSET 6.45672 0.0 0.0
						CHANNELS 6 Xposition Yposition Zposition Zrotation Xrotation Yrotation 
						End Site
						{
							OFFSET 0.0 0.0 0.0
						}
					}
				}
				JOINT Shoulder_L
				{
					OFFSET 12.9942 -0.242716 4.98039
					CHANNELS 6 Xposition Yposition Zposition Zrotation Xrotation Yrotation 
					JOINT UpperArm_L
					{
						OFFSET 5.34809 0.0 0.0
						CHANNELS 6 Xposition Yposition Zposition Zrotation Xrotation Yrotation 
						JOINT LowerArm_L
						{
							OFFSET 24.3286 1.87007e-05 0.0
							CHANNELS 6 Xposition Yposition Zposition Zrotation Xrotation Yrotation 
							JOINT Hand_L
							{
								OFFSET 22.2916 0.0 0.0
								CHANNELS 6 Xposition Yposition Zposition Zrotation Xrotation Yrotation 
								End Site
								{
									OFFSET 0.0 0.0 0.0
								}
							}
						}
					}
				}
				JOINT Shoulder_R
				{
					OFFSET 12.9945 -0.242716 -4.98039
					CHANNELS 6 Xposition Yposition Zposition Zrotation Xrotation Yrotation 
					JOINT UpperArm_R
					{
						OFFSET -5.34813 0.0 0.0
						CHANNELS 6 Xposition Yposition Zposition Zrotation Xrotation Yrotation 
						JOINT LowerArm_R
						{
							OFFSET -24.3289 0.000322201 0.0
							CHANNELS 6 Xposition Yposition Zposition Zrotation Xrotation Yrotation 
							JOINT Hand_R
							{
								OFFSET -22.2915 -0.000108084 0.0
								CHANNELS 6 Xposition Yposition Zposition Zrotation Xrotation Yrotation 
								End Site
								{
									OFFSET 0.0 0.0 0.0
								}
							}
						}
					}
				}
			}
		}
		JOINT UpperLeg_L
		{
			OFFSET -2.19248 -6.46944 0.0
			CHANNELS 6 Xposition Yposition Zposition Zrotation Xrotation Yrotation 
			JOINT LowerLeg_L
			{
				OFFSET 39.0811 0.0 -1.23785e-05
				CHANNELS 6 Xposition Yposition Zposition Zrotation Xrotation Yrotation 
				JOINT Foot_L
				{
					OFFSET 40.9854 0.0 -1.26872e-05
					CHANNELS 6 Xposition Yposition Zposition Zrotation Xrotation Yrotation 
					JOINT Toes_L
					{
						OFFSET 11.7543 0.0 0.0
						CHANNELS 6 Xposition Yposition Zposition Zrotation Xrotation Yrotation 
						End Site
						{
							OFFSET 0.0 0.0 0.0
						}
					}
				}
			}
		}
		JOINT UpperLeg_R
		{
			OFFSET -2.19251 6.46944 0.0
			CHANNELS 6 Xposition Yposition Zposition Zrotation Xrotation Yrotation 
			JOINT LowerLeg_R
			{
				OFFSET -39.0811 -0.00228153 -0.0401928
				CHANNELS 6 Xposition Yposition Zposition Zrotation Xrotation Yrotation 
				JOINT Foot_R
				{
					OFFSET -40.9854 0.0 0.0
					CHANNELS 6 Xposition Yposition Zposition Zrotation Xrotation Yrotation 
					JOINT Toes_R
					{
						OFFSET -11.7543 0.0 0.0
						CHANNELS 6 Xposition Yposition Zposition Zrotation Xrotation Yrotation 
						End Site
						{
							OFFSET 0.0 0.0 0.0
						}
					}
				}
			}
		}
	}
}
MOTION
Frames:	8
Frame Time:	0.0333333
0.000000 0.000000 0.000000 0.000000 0.000000 -0.000000 -1.113430 92.963500 -1.673650 89.036800 -2.522220 2.467440 15.735700 0.000005 -0.000001 93.777500 86.351900 -93.860200 8.984550 -0.406207 -0.000000 -0.485331 0.486527 -0.163237 16.377300 -0.000001 -0.000001 2.996410 -2.583410 3.434700 6.456720 -0.000001 -0.000000 8.049140 -1.602520 -3.375700 12.994200 -0.242716 4.980390 -90.580800 1.901040 -73.006700 5.348090 -0.000007 -0.000001 -66.594000 34.963800 -14.739900 24.328600 0.000019 0.000005 5.494810 13.600900 -22.245800 22.291600 -0.000001 0.000005 0.718887 5.469570 -5.350790 12.994500 -0.242716 -4.980390 87.602900 8.177080 -73.599600 -5.348130 -0.000001 -0.000004 -63.177600 39.318000 -13.781600 -24.328900 0.000322 -0.000009 4.847530 12.712400 -21.078900 -22.291500 -0.000108 -0.000004 4.818680 5.356680 -1.568620 -2.192480 -6.469440 -0.000000 -176.234000 -8.256600 -2.522280 39.081100 -0.000007 -0.000012 -0.061006 0.194434 17.419800 40.985400 -0.000006 -0.000013 -0.651808 4.288360 -62.511500 11.754300 -0.000000 0.000003 -0.000002 -0.000032 -16.578700 -2.192510 6.469440 -0.000001 179.539000 11.026900 179.419000 -39.081100 -0.002282 -0.040193 -0.053266 0.211567 14.976500 -40.985400 0.000008 0.000006 1.413670 6.981870 -62.261300 -11.754300 -0.000006 -0.000006 -0.005949 -0.070368 -19.436900
0.000000 0.000000 0.000000 0.000000 0.000000 -0.000000 -1.133600 92.979900 -1.692960 89.055000 -2.346830 2.426130 15.735700 0.000005 -0.000001 93.780000 86.375400 -93.874200 8.984550 -0.406207 -0.000000 -0.532162 0.484616 -0.186018 16.377300 -0.000001 -0.000001 2.997530 -2.581990 3.456470 6.456720 -0.000001 -0.000000 7.707060 -1.542680 -3.281890 12.994200 -0.242716 4.980390 -90.656200 2.145480 -72.989400 5.348090 -0.000007 -0.000001 -65.130100 33.177900 -16.085000 24.328600 0.000019 0.000005 6.992760 15.111100 -25.195000 22.291600 -0.000001 0.000005 -1.496620 5.476060 -5.599980 12.994500 -0.242716 -4.980390 87.627500 8.021740 -73.464000 -5.348130 -0.000001 -0.000004 -62.638400 37.065700 -14.269400 -24.328900 0.000322 -0.000009 5.787280 13.146300 -24.021600 -22.291500 -0.000108 -0.000004 1.627230 5.332150 -0.844719 -2.192480 -6.469440 -0.000000 -176.257000 -8.165360 -2.528520 39.081100 -0.000007 -0.000012 -0.059981 0.192936 17.269600 40.985400 -0.000006 -0.000013 -0.661798 4.307420 -62.404500 11.754300 -0.000000 0.000003 -0.000001 -0.000018 -16.578200 -2.192510 6.469440 -0.000001 179.551000 11.075400 179.449000 -39.081100 -0.002282 -0.040193 -0.052441 0.210724 14.824400 -40.985400 0.000008 0.000006 1.402930 6.866360 -62.182300 -11.754300 -0.000006 -0.000006 -0.005716 -0.068229 -19.349700
0.000000 0.000000 0.000000 0.000000 0.000000 -0.000000 -1.153620 92.988500 -1.763090 89.068800 -2.243480 2.400030 15.735700 0.000005 -0.000001 93.577400 86.380200 -93.702200 8.984550 -0.406207 -0.000000 -0.540090 0.460672 -0.247227 16.377300 -0.000001 -0.000001 3.178930 -2.428680 3.442570 6.456720 -0.000001 -0.000000 6.903060 -1.362770 -2.990610 12.994200 -0.242716 4.980390 -90.700100 2.252530 -72.729500 5.348090 -0.000007 -0.000001 -62.494500 30.284300 -18.718600 24.328600 0.000019 0.000005 7.969560 14.206000 -29.706600 22.291600 -0.000001 0.000005 -1.203510 5.480000 -5.741700 12.994500 -0.242716 -4.980390 87.607800 7.947510 -73.188300 -5.348130 -0.000001 -0.000004 -60.658500 33.966300 -16.257700 -24.328900 0.000322 -0.000009 6.593670 12.399800 -28.299000 -22.291500 -0.000108 -0.000004 0.562365 5.332430 -0.854884 -2.192480 -6.469440 -0.000000 -176.265000 -8.103390 -2.596420 39.081100 -0.000007 -0.000012 -0.059349 0.191523 17.217100 40.985400 -0.000006 -0.000013 -0.669784 4.368230 -62.315500 11.754300 -0.000000 0.000003 -0.000002 -0.000026 -16.578500 -2.192510 6.469440 -0.000001 179.564000 11.132600 179.399000 -39.081100 -0.002282 -0.040193 -0.052407 0.211080 14.791800 -40.985400 0.000008 0.000006 1.412590 6.828280 -62.130300 -11.754300 -0.000006 -0.000006 -0.005938 -0.070268 -19.432800
0.000000 0.000000 0.000000 0.000000 0.000000 -0.000000 -1.178300 92.997800 -1.881270 89.087300 -2.154320 2.477400 15.735700 0.000005 -0.000001 93.451200 86.401300 -93.590900 8.984550 -0.406207 -0.000000 -0.581174 0.443341 -0.276850 16.377300 -0.000001 -0.000001 3.526060 -2.279390 3.480770 6.456720 -0.000001 -0.000000 6.275230 -1.203160 -2.901210 12.994200 -0.242716 4.980390 -90.694700 2.219230 -72.612500 5.348090 -0.000007 -0.000001 -59.647800 25.896500 -22.100000 24.328600 0.000019 0.000005 8.337710 12.057400 -35.055900 22.291600 -0.000001 0.000005 1.222730 5.500510 -6.545030 12.994500 -0.242716 -4.980390 87.576000 7.890170 -72.861600 -5.348130 -0.000001 -0.000004 -57.451400 30.170000 -19.513600 -24.328900 0.000322 -0.000009 7.199290 10.796400 -33.999400 -22.291500 -0.000108 -0.000004 3.002480 5.342690 -1.155110 -2.192480 -6.469440 -0.000000 -176.258000 -8.104790 -2.601510 39.081100 -0.000007 -0.000012 -0.059701 0.193121 17.178400 40.985400 -0.000006 -0.000013 -0.678381 4.437790 -62.195400 11.754300 -0.000000 0.000003 -0.000002 -0.000029 -16.578600 -2.192510 6.469440 -0.000001 179.573000 11.190800 179.390000 -39.081100 -0.002282 -0.040193 -0.052479 0.211183 14.803300 -40.985400 0.000008 0.000006 1.435190 6.761980 -62.059700 -11.754300 -0.000006 -0.000006 -0.006026 -0.071073 -19.465700
0.000000 0.000000 0.000000 0.000000 0.000000 -0.000000 -1.199720 92.995900 -1.984320 89.050100 -2.204550 2.573860 15.735700 0.000005 -0.000001 93.803400 86.438700 -93.931800 8.984550 -0.406207 -0.000000 -0.658590 0.481800 -0.253850 16.377300 -0.000001 -0.000001 3.753460 -2.156410 3.493580 6.456720 -0.000001 -0.000000 6.112960 -1.034330 -2.813440 12.994200 -0.242716 4.980390 -90.614200 1.971520 -72.693200 5.348090 -0.000007 -0.000001 -57.327000 20.049800 -25.934700 24.328600 0.000019 0.000005 9.530270 10.926400 -41.530000 22.291600 -0.000001 0.000005 3.106610 5.517510 -7.254960 12.994500 -0.242716 -4.980390 87.582500 7.758020 -72.633100 -5.348130 -0.000001 -0.000004 -54.179000 24.921700 -23.555300 -24.328900 0.000322 -0.000009 8.372610 9.741680 -41.016300 -22.291500 -0.000108 -0.000004 5.658310 5.342690 -1.158540 -2.192480 -6.469440 -0.000000 -176.207000 -8.103330 -2.614280 39.081100 -0.000007 -0.000012 -0.059231 0.190390 17.280900 40.985400 -0.000006 -0.000013 -0.685372 4.409930 -62.184500 11.754300 -0.000000 0.000003 -0.000002 -0.000025 -16.578500 -2.192510 6.469440 -0.000001 179.615000 11.207500 179.385000 -39.081100 -0.002282 -0.040193 -0.052269 0.209527 14.861400 -40.985400 0.000008 0.000006 1.467350 6.823360 -62.018900 -11.754300 -0.000006 -0.000006 -0.005785 -0.068865 -19.375600
0.000000 0.000000 0.000000 0.000000 0.000000 -0.000000 -1.193390 93.002500 -2.069370 89.043500 -2.312040 2.683980 15.735700 0.000005 -0.000001 94.049300 86.501800 -94.160000 8.984550 -0.406207 -0.000000 -0.786568 0.502212 -0.217914 16.377300 -0.000001 -0.000001 3.939740 -2.026900 3.525080 6.456720 -0.000001 -0.000000 6.179010 -0.862620 -2.904790 12.994200 -0.242716 4.980390 -90.463700 1.498520 -72.803800 5.348090 -0.000007 -0.000001 -55.470300 13.876100 -30.184300 24.328600 0.000019 0.000005 10.671300 9.618140 -48.437500 22.291600 -0.000001 0.000005 5.115190 5.529120 -7.751850 12.994500 -0.242716 -4.980390 87.681200 7.395290 -72.536500 -5.348130 -0.000001 -0.000004 -51.581000 18.573500 -28.038600 -24.328900 0.000322 -0.000009 11.021300 9.703320 -49.123700 -22.291500 -0.000108 -0.000004 7.775990 5.336520 -0.973127 -2.192480 -6.469440 -0.000000 -176.193000 -8.142740 -2.538720 39.081100 -0.000007 -0.000012 -0.058388 0.187884 17.263400 40.985400 -0.000006 -0.000013 -0.688585 4.366030 -62.127000 11.754300 -0.000000 0.000003 -0.000002 -0.000031 -16.578700 -2.192510 6.469440 -0.000001 179.603000 11.241000 179.437000 -39.081100 -0.002282 -0.040193 -0.051489 0.206725 14.851900 -40.985400 0.000008 0.000006 1.488560 6.947630 -61.951600 -11.754300 -0.000006 -0.000006 -0.005983 -0.070685 -19.449900
0.000000 0.000000 0.000000 0.000000 0.000000 -0.000000 -1.177110 93.003200 -2.113310 89.018200 -2.438270 2.771200 15.735700 0.000005 -0.000001 94.240300 86.600300 -94.318800 8.984550 -0.406207 -0.000000 -0.984831 0.508638 -0.152470 16.377300 -0.000001 -0.000001 4.099270 -1.921800 3.566000 6.456720 -0.000001 -0.000000 6.311360 -0.724882 -3.034260 12.994200 -0.242716 4.980390 -90.264500 0.861800 -72.938200 5.348090 -0.000007 -0.000001 -54.668200 7.319560 -34.579900 24.328600 0.000019 0.000005 11.682100 8.187620 -55.441200 22.291600 -0.000001 0.000005 7.149570 5.541210 -8.288310 12.994500 -0.242716 -4.980390 87.852000 6.848340 -72.539100 -5.348130 -0.000001 -0.000004 -49.507600 12.109600 -32.892300 -24.328900 0.000322 -0.000009 12.843900 8.454330 -57.190100 -22.291500 -0.000108 -0.000004 10.909400 5.351100 -1.406360 -2.192480 -6.469440 -0.000000 -176.160000 -8.197650 -2.480140 39.081100 -0.000007 -0.000012 -0.058914 0.189162 17.299000 40.985400 -0.000006 -0.000013 -0.687606 4.325370 -62.127200 11.754300 -0.000000 0.000003 -0.000001 -0.000020 -16.578300 -2.192510 6.469440 -0.000001 179.612000 11.222400 179.479000 -39.081100 -0.002282 -0.040193 -0.049825 0.200339 14.859700 -40.985400 0.000008 0.000006 1.504480 7.055070 -61.914300 -11.754300 -0.000006 -0.000006 -0.005863 -0.069585 -19.405000
0.000000 0.000000 0.000000 0.000000 0.000000 -0.000000 -1.154050 93.007900 -2.127010 89.037300 -2.510980 2.747870 15.735700 0.000005 -0.000001 94.238100 86.726500 -94.311800 8.984550 -0.406207 -0.000000 -1.236540 0.489528 -0.141930 16.377300 -0.000001 -0.000001 4.159310 -1.935260 3.670320 6.456720 -0.000001 -0.000000 6.458360 -0.627910 -3.189040 12.994200 -0.242716 4.980390 -90.031800 0.105256 -73.218800 5.348090 -0.000007 -0.000001 -54.745000 0.788706 -39.220700 24.328600 0.000019 0.000005 12.690800 6.911400 -61.880500 22.291600 -0.000001 0.000005 9.507560 5.553160 -8.848940 12.994500 -0.242716 -4.980390 88.048000 6.274450 -72.680700 -5.348130 -0.000001 -0.000004 -48.507600 5.175460 -38.120200 -24.328900 0.000322 -0.000009 12.858400 6.349690 -64.156400 -22.291500 -0.000108 -0.000004 13.404900 5.367610 -1.910130 -2.192480 -6.469440 -0.000000 -176.205000 -8.268780 -2.484010 39.081100 -0.000007 -0.000012 -0.058423 0.188136 17.251400 40.985400 -0.000006 -0.000013 -0.674963 4.272820 -62.097500 11.754300 -0.000000 0.000003 -0.000002 -0.000023 -16.578400 -2.192510 6.469440 -0.000001 179.572000 11.186200 179.447000 -39.081100 -0.002282 -0.040193 -0.050606 0.203466 14.847100 -40.985400 0.000008 0.000006 1.489950 7.132000 -61.891600 -11.754300 -0.000006 -0.000006 -0.005711 -0.068185 -19.347900
